{"title":"Shrek trzeci","uid":7150565,"size":1172549568,"categoryP":"video","categoryS":"hd___movies","magnet":"?xt=urn:btih:32d719ea5ddb0517fbcd05b78fe83d2109441e1f&amp;dn=Shrek+trzeci&amp;tr=udp%3A%2F%2Ftracker.openbittorrent.com%3A80&amp;tr=udp%3A%2F%2Fopen.demonii.com%3A1337&amp;tr=udp%3A%2F%2Ftracker.coppersurfer.tk%3A6969&amp;tr=udp%3A%2F%2Fexodus.desync.com%3A6969","seeders":0,"leechers":1,"uploader":null,"files":-1,"time":1333301132,"description":"Trzecia odsÅ‚ona Shreka.\n\n\n\nInfo o pliku:\nDuration: 01:32:46.05, bitrate: 1685 kb/s\n    Stream #0.0: Video: mpeg4, yuv420p, 720x400 [PAR 1:1 DAR 9:5], 23.98 fps\n    Stream #0.1: Audio: ac3, 48000 Hz, 5.1, s16, 384 kb/s\n","torrent":{"xt":"urn:btih:32d719ea5ddb0517fbcd05b78fe83d2109441e1f","amp;dn":"Shrek+trzeci","amp;tr":["udp%3A%2F%2Ftracker.openbittorrent.com%3A80","udp%3A%2F%2Fopen.demonii.com%3A1337","udp%3A%2F%2Ftracker.coppersurfer.tk%3A6969","udp%3A%2F%2Fexodus.desync.com%3A6969"],"infoHash":"32d719ea5ddb0517fbcd05b78fe83d2109441e1f","infoHashBuffer":{"type":"Buffer","data":[50,215,25,234,93,219,5,23,251,205,5,183,143,232,61,33,9,68,30,31]},"announce":[],"urlList":[]}}